HIERARCHY
ROOT hip
{
  OFFSET 0 0 0
  CHANNELS 6 Xposition Yposition Zposition Zrotation Yrotation Xrotation
  JOINT abdomen
  {
    OFFSET 0 20.6881 -0.73152
    CHANNELS 3 Zrotation Xrotation Yrotation
    JOINT chest
    {
      OFFSET 0 11.7043 -0.48768
      CHANNELS 3 Zrotation Xrotation Yrotation
      JOINT neck
      {
        OFFSET 0 22.1894 -2.19456
        CHANNELS 3 Zrotation Xrotation Yrotation
        JOINT head
        {
          OFFSET -0.24384 7.07133 1.2192
          CHANNELS 3 Zrotation Xrotation Yrotation
          JOINT leftEye
          {
            OFFSET 4.14528 8.04674 8.04672
            CHANNELS 3 Zrotation Xrotation Yrotation
            End Site
            {
              OFFSET 1 0 0
            }
          }
          JOINT rightEye
          {
            OFFSET -3.6576 8.04674 8.04672
            CHANNELS 3 Zrotation Xrotation Yrotation
            End Site
            {
              OFFSET 1 0 0
            }
          }
        }
      }
      JOINT rCollar
      {
        OFFSET -2.68224 19.2634 -4.8768
        CHANNELS 3 Zrotation Xrotation Yrotation
        JOINT rShldr
        {
          OFFSET -8.77824 -1.95073 1.46304
          CHANNELS 3 Zrotation Xrotation Yrotation
          JOINT rForeArm
          {
            OFFSET -28.1742 -1.7115 0.48768
            CHANNELS 3 Zrotation Xrotation Yrotation
            JOINT rHand
            {
              OFFSET -22.5879 0.773209 7.07136
              CHANNELS 3 Zrotation Xrotation Yrotation
              JOINT rThumb1
              {
                OFFSET -1.2192 -0.487915 3.41376
                CHANNELS 3 Zrotation Xrotation Yrotation
                JOINT rThumb2
                {
                  OFFSET -3.37035 -0.52449 3.41376
                  CHANNELS 3 Zrotation Xrotation Yrotation
                  End Site
                  {
                    OFFSET -1.78271 -1.18214 1.43049
                  }
                }
              }
              JOINT rIndex1
              {
                OFFSET -7.75947 0.938293 5.60832
                CHANNELS 3 Zrotation Xrotation Yrotation
                JOINT rIndex2
                {
                  OFFSET -2.54057 -0.884171 1.56538
                  CHANNELS 3 Zrotation Xrotation Yrotation
                  End Site
                  {
                    OFFSET -1.62519 -0.234802 1.16502
                  }
                }
              }
              JOINT rMid1
              {
                OFFSET -8.24714 1.18213 3.41376
                CHANNELS 3 Zrotation Xrotation Yrotation
                JOINT rMid2
                {
                  OFFSET -3.10165 -0.590103 1.0647
                  CHANNELS 3 Zrotation Xrotation Yrotation
                  End Site
                  {
                    OFFSET -2.48547 -0.328903 0.83742
                  }
                }
              }
              JOINT rRing1
              {
                OFFSET -8.82822 0.546677 1.51678
                CHANNELS 3 Zrotation Xrotation Yrotation
                JOINT rRing2
                {
                  OFFSET -2.60934 -0.819778 -0.0198488
                  CHANNELS 3 Zrotation Xrotation Yrotation
                  End Site
                  {
                    OFFSET -2.33842 -0.294052 0.168128
                  }
                }
              }
              JOINT rPinky1
              {
                OFFSET -8.27202 -0.0477905 -0.4584
                CHANNELS 3 Zrotation Xrotation Yrotation
                JOINT rPinky2
                {
                  OFFSET -1.82734 -0.647385 -0.700984
                  CHANNELS 3 Zrotation Xrotation Yrotation
                  End Site
                  {
                    OFFSET -1.69225 -0.51767 -0.607171
                  }
                }
              }
            }
          }
        }
      }
      JOINT lCollar
      {
        OFFSET 2.68224 19.2634 -4.8768
        CHANNELS 3 Zrotation Xrotation Yrotation
        JOINT lShldr
        {
          OFFSET 8.77824 -1.95073 1.46304
          CHANNELS 3 Zrotation Xrotation Yrotation
          JOINT lForeArm
          {
            OFFSET 28.1742 -1.7115 0.48768
            CHANNELS 3 Zrotation Xrotation Yrotation
            JOINT lHand
            {
              OFFSET 22.5879 0.773209 7.07136
              CHANNELS 3 Zrotation Xrotation Yrotation
              JOINT lThumb1
              {
                OFFSET 1.2192 -0.487915 3.41376
                CHANNELS 3 Zrotation Xrotation Yrotation
                JOINT lThumb2
                {
                  OFFSET 3.37035 -0.52449 3.41376
                  CHANNELS 3 Zrotation Xrotation Yrotation
                  End Site
                  {
                    OFFSET 1.78271 -1.18214 1.43049
                  }
                }
              }
              JOINT lIndex1
              {
                OFFSET 7.75947 0.938293 5.60832
                CHANNELS 3 Zrotation Xrotation Yrotation
                JOINT lIndex2
                {
                  OFFSET 2.54057 -0.884171 1.56538
                  CHANNELS 3 Zrotation Xrotation Yrotation
                  End Site
                  {
                    OFFSET 1.62519 -0.234802 1.16502
                  }
                }
              }
              JOINT lMid1
              {
                OFFSET 8.24714 1.18213 3.41376
                CHANNELS 3 Zrotation Xrotation Yrotation
                JOINT lMid2
                {
                  OFFSET 3.10165 -0.590103 1.0647
                  CHANNELS 3 Zrotation Xrotation Yrotation
                  End Site
                  {
                    OFFSET 2.48547 -0.328903 0.83742
                  }
                }
              }
              JOINT lRing1
              {
                OFFSET 8.82822 0.546677 1.51678
                CHANNELS 3 Zrotation Xrotation Yrotation
                JOINT lRing2
                {
                  OFFSET 2.60934 -0.819778 -0.0198488
                  CHANNELS 3 Zrotation Xrotation Yrotation
                  End Site
                  {
                    OFFSET 2.33842 -0.294052 0.168128
                  }
                }
              }
              JOINT lPinky1
              {
                OFFSET 8.27202 -0.0477905 -0.4584
                CHANNELS 3 Zrotation Xrotation Yrotation
                JOINT lPinky2
                {
                  OFFSET 1.82734 -0.647385 -0.700984
                  CHANNELS 3 Zrotation Xrotation Yrotation
                  End Site
                  {
                    OFFSET 1.69225 -0.51767 -0.607171
                  }
                }
              }
            }
          }
        }
      }
    }
  }
  JOINT rButtock
  {
    OFFSET -8.77824 4.35084 1.2192
    CHANNELS 3 Zrotation Xrotation Yrotation
    JOINT rThigh
    {
      OFFSET 0 -1.70687 -2.19456
      CHANNELS 3 Zrotation Xrotation Yrotation
      JOINT rShin
      {
        OFFSET 0 -36.8199 0.73152
        CHANNELS 3 Zrotation Xrotation Yrotation
        JOINT rFoot
        {
          OFFSET 0.73152 -45.1104 -5.12064
          CHANNELS 3 Zrotation Xrotation Yrotation
          End Site
          {
            OFFSET -1.1221 -3.69964 12.103
          }
        }
      }
    }
  }
  JOINT lButtock
  {
    OFFSET 8.77824 4.35084 1.2192
    CHANNELS 3 Zrotation Xrotation Yrotation
    JOINT lThigh
    {
      OFFSET 0 -1.70687 -2.19456
      CHANNELS 3 Zrotation Xrotation Yrotation
      JOINT lShin
      {
        OFFSET 0 -36.8199 0.73152
        CHANNELS 3 Zrotation Xrotation Yrotation
        JOINT lFoot
        {
          OFFSET -0.73152 -45.1104 -5.12064
          CHANNELS 3 Zrotation Xrotation Yrotation
          End Site
          {
            OFFSET 1.1221 -3.69964 12.103
          }
        }
      }
    }
  }
}
MOTION
Frames:	8
Frame Time:	0.00833333
284.731 84.8429 -35.5509 0.0 0.0 0.0 -0.257805 -0.00149939 -0.00737506 -0.0711633 -0.00234959 -0.0123289 6.06066e-16 7.95139e-16 7.76503e-17 1.64619e-15 9.54166e-15 2.23633e-16 -0.0 0.0 0.0 -0.0 0.0 0.0 3.9625e-16 -9.70628e-19 1.98785e-16 7.13383e-15 -2.36057e-16 1.59028e-15 1.00883e-13 -2.78299e-14 3.18055e-15 1.09606e-12 3.22777e-14 1.78111e-13 2.59266e-12 1.10512e-14 3.94389e-13 4.4651e-12 2.22639e-14 6.65531e-13 2.59891e-12 1.19271e-14 3.81667e-13 7.73091 5.47488 0.417314 2.59136e-12 1.07344e-14 3.94389e-13 2.90554 0.965183 0.102902 2.60461e-12 1.11319e-14 3.88823e-13 10.2786 0.731801 0.0259123 2.59255e-12 1.15295e-14 3.94389e-13 2.22167 -0.733487 -0.20892 2.00125e-16 -1.55301e-18 -9.93923e-17 4.01025e-15 2.60905e-16 0.0 9.38761e-14 3.04141e-14 2.8625e-14 1.09619e-12 -2.4376e-14 1.62208e-13 2.58386e-12 1.02094e-14 3.78486e-13 4.47862e-12 1.90833e-14 6.71097e-13 2.57903e-12 9.1441e-15 3.84847e-13 -7.73091 5.47488 -0.417314 2.5837e-12 1.0138e-14 3.84847e-13 -2.90554 0.965183 -0.102902 2.57854e-12 1.02374e-14 3.88028e-13 -10.2786 0.731801 -0.0259123 2.59215e-12 1.39149e-14 3.91208e-13 -2.22167 -0.733487 0.20892 -2.03217e-16 0.0 -3.88251e-19 0.288529 -2.74965 -0.0315102 -0.00677202 -0.571697 -0.0593186 -0.483448 3.32101 0.122368 2.03217e-16 0.0 3.88251e-19 -0.681406 -3.7593 0.0561648 0.00387441 1.25717 0.0320717 0.487165 2.50184 -0.106259
278.495 83.3843 -41.0183 -27.8775 -85.9025 28.0208 -0.300448 0.422391 0.26384 0.0979945 1.33248 0.0377334 -1.22205 1.75239 -0.971143 3.23848 -7.82352 -0.971646 -0.0 0.0 0.0 -0.0 0.0 0.0 -2.50288e-15 -8.85442e-14 -3.22676e-15 21.8019 5.43423 1.03036 -3.89684 -1.71074 6.14962 5.25961e-06 0.0512618 0.00720437 5.10479e-11 -5.73212e-11 1.68386e-10 8.85391e-11 -9.91832e-11 2.9133e-10 5.10567e-11 -5.73199e-11 1.68371e-10 7.73091 5.47488 0.417314 5.10485e-11 -5.73226e-11 1.68387e-10 2.90554 0.965183 0.102902 5.1059e-11 -5.73221e-11 1.68383e-10 10.2786 0.731801 0.0259123 5.10467e-11 -5.73203e-11 1.68387e-10 2.22167 -0.733487 -0.20892 -2.69521e-15 -8.85428e-14 -3.55793e-15 -22.2197 6.69702 -2.08495 3.54778 -1.49813 -5.65875 -0.00924735 -2.13388 0.299147 4.04679e-11 1.18153e-10 -6.13478e-11 6.98851e-11 2.04873e-10 -1.05849e-10 4.04613e-11 1.18152e-10 -6.13414e-11 -7.73091 5.47488 -0.417314 4.04669e-11 1.18152e-10 -6.13422e-11 -2.90554 0.965183 -0.102902 4.04618e-11 1.18152e-10 -6.13414e-11 -10.2786 0.731801 -0.0259123 4.0473e-11 1.18155e-10 -6.13413e-11 -2.22167 -0.733487 0.20892 -2.03217e-16 0.0 -3.88251e-19 0.195001 -5.60755 -0.191892 0.0230067 9.00593 0.11556 -0.828432 -3.60224 -2.42661 2.03217e-16 0.0 3.88251e-19 0.0950961 -5.53332 0.59944 -0.0148896 8.45937 -0.0976237 0.921869 -2.44831 3.89473
278.439 83.3897 -40.9812 -25.8092 -85.95 25.905 -0.349168 0.871771 0.550571 0.273931 2.74403 0.0906632 -2.44876 3.60295 -2.00047 6.36194 -16.0888 -2.06038 -0.0 0.0 0.0 -0.0 0.0 0.0 -5.42713e-15 -1.89455e-13 -8.14085e-15 44.6341 11.1717 2.15162 -7.61956 -3.45353 12.6681 -3.29416e-06 0.106181 0.0149228 1.0497e-10 -1.139e-10 3.58487e-10 1.82113e-10 -1.9707e-10 6.20224e-10 1.04982e-10 -1.13898e-10 3.58468e-10 7.73091 5.47488 0.417314 1.04973e-10 -1.13902e-10 3.58488e-10 2.90554 0.965183 0.102902 1.04981e-10 -1.13902e-10 3.58485e-10 10.2786 0.731801 0.0259123 1.04968e-10 -1.13898e-10 3.58488e-10 2.22167 -0.733487 -0.20892 -5.61822e-15 -1.89452e-13 -8.51047e-15 -45.1645 13.7523 -4.38474 6.9808 -3.03478 -11.6573 0.00528663 -4.39506 0.617551 8.62646e-11 2.4637e-10 -1.40466e-10 1.49009e-10 4.27207e-10 -2.42396e-10 8.6256e-11 2.4637e-10 -1.4046e-10 -7.73091 5.47488 -0.417314 8.62627e-11 2.46369e-10 -1.40461e-10 -2.90554 0.965183 -0.102902 8.62576e-11 2.46368e-10 -1.40463e-10 -10.2786 0.731801 -0.0259123 8.62663e-11 2.4637e-10 -1.40466e-10 -2.22167 -0.733487 0.20892 -2.03217e-16 0.0 -3.88251e-19 0.0794403 -8.62901 -0.362759 -0.0120809 19.1306 0.314937 -1.87243 -10.8837 -5.20592 2.03217e-16 0.0 3.88251e-19 0.95331 -7.4078 1.17733 0.00201735 16.0731 -0.242017 2.1362 -7.61759 8.18841
278.423 83.3905 -40.9771 -25.6157 -85.938 25.7021 -0.397775 1.27006 0.806446 0.429299 4.00214 0.138164 -3.48737 5.25111 -2.92435 8.85891 -23.4423 -3.14785 -0.0 0.0 0.0 -0.0 0.0 0.0 -8.30115e-15 -2.65631e-13 -1.00778e-14 64.7989 16.2811 3.20587 -10.6066 -4.89619 18.5106 -2.28953e-05 0.153786 0.0216132 1.47958e-10 -1.71986e-10 5.0437e-10 2.56687e-10 -2.97594e-10 8.72658e-10 1.47972e-10 -1.71984e-10 5.04349e-10 7.73091 5.47488 0.417314 1.47963e-10 -1.71989e-10 5.04372e-10 2.90554 0.965183 0.102902 1.47968e-10 -1.71989e-10 5.0437e-10 10.2786 0.731801 0.0259123 1.47955e-10 -1.71984e-10 5.04373e-10 2.22167 -0.733487 -0.20892 -8.48587e-15 -2.65625e-13 -1.0475e-14 -65.1205 19.9811 -6.61176 9.7679 -4.31935 -17.0202 0.0394593 -6.40094 0.902445 1.16236e-10 3.54438e-10 -1.848e-10 2.00698e-10 6.1458e-10 -3.1889e-10 1.16226e-10 3.54439e-10 -1.84794e-10 -7.73091 5.47488 -0.417314 1.16233e-10 3.54437e-10 -1.84796e-10 -2.90554 0.965183 -0.102902 1.16228e-10 3.54435e-10 -1.848e-10 -10.2786 0.731801 -0.0259123 1.16235e-10 3.54436e-10 -1.84806e-10 -2.22167 -0.733487 0.20892 -2.03217e-16 0.0 -3.88251e-19 -0.0409436 -11.323 -0.520095 -0.111152 28.1603 0.52294 -3.42866 -17.3039 -7.86796 2.03217e-16 0.0 3.88251e-19 1.75023 -9.07831 1.69914 0.052283 22.8633 -0.383981 3.88604 -12.0964 12.1598
278.412 83.3899 -40.9804 -25.8826 -85.9426 25.9778 -0.437545 1.54073 0.985012 0.538187 4.87666 0.171796 -4.18194 6.39903 -3.5742 10.4137 -28.543 -4.01197 -0.0 0.0 0.0 -0.0 0.0 0.0 -1.10496e-14 -2.79967e-13 -4.57205e-15 78.731 19.8411 3.98347 -12.5116 -5.81326 22.6041 -4.11177e-05 0.183101 0.0257332 1.63611e-10 -2.33841e-10 5.39711e-10 2.83764e-10 -4.04713e-10 9.33942e-10 1.63625e-10 -2.33838e-10 5.39689e-10 7.73091 5.47488 0.417314 1.63616e-10 -2.33845e-10 5.39715e-10 2.90554 0.965183 0.102902 1.6362e-10 -2.33844e-10 5.39712e-10 10.2786 0.731801 0.0259123 1.63607e-10 -2.33839e-10 5.39715e-10 2.22167 -0.733487 -0.20892 -1.12151e-14 -2.7996e-13 -4.96962e-15 -78.7179 24.2484 -8.3169 11.5551 -5.14141 -20.7519 0.0746086 -7.76927 1.09871 1.06644e-10 4.12133e-10 -1.42174e-10 1.83801e-10 7.14553e-10 -2.45253e-10 1.06633e-10 4.12134e-10 -1.42168e-10 -7.73091 5.47488 -0.417314 1.06641e-10 4.12131e-10 -1.42171e-10 -2.90554 0.965183 -0.102902 1.06636e-10 4.1213e-10 -1.42176e-10 -10.2786 0.731801 -0.0259123 1.06641e-10 4.1213e-10 -1.42184e-10 -2.22167 -0.733487 0.20892 -2.03217e-16 0.0 -3.88251e-19 -0.139044 -13.1986 -0.637224 -0.227974 34.4534 0.69702 -4.89416 -21.7144 -9.88391 2.03217e-16 0.0 3.88251e-19 2.3217 -10.2415 2.0699 0.109772 27.5952 -0.494472 5.4874 -15.0987 15.0514
278.399 83.3905 -40.9745 -25.6275 -85.9451 25.7177 -0.462305 1.63205 1.05523 0.58465 5.21433 0.185895 -4.45176 6.85155 -3.83336 10.9821 -30.5094 -4.38724 -0.0 0.0 0.0 -0.0 0.0 0.0 -1.58906e-14 -1.99911e-13 1.84493e-14 84.1481 21.2474 4.29181 -13.2202 -6.14918 24.2138 -4.47407e-05 0.186002 0.0261409 1.37583e-10 -3.23891e-10 3.49919e-10 2.38229e-10 -5.60772e-10 6.05983e-10 1.37595e-10 -3.23888e-10 3.49899e-10 7.73091 5.47488 0.417314 1.37585e-10 -3.23894e-10 3.49926e-10 2.90554 0.965183 0.102902 1.3759e-10 -3.23893e-10 3.49921e-10 10.2786 0.731801 0.0259123 1.37578e-10 -3.23889e-10 3.49924e-10 2.22167 -0.733487 -0.20892 -1.60107e-14 -1.99905e-13 1.80952e-14 -83.9735 25.8404 -9.03591 12.1995 -5.42914 -22.1675 0.089457 -8.23817 1.16645 3.17287e-11 3.99728e-10 1.15742e-10 5.34076e-11 6.92901e-10 2.00205e-10 3.17189e-11 3.99729e-10 1.15748e-10 -7.73091 5.47488 -0.417314 3.17272e-11 3.99725e-10 1.15743e-10 -2.90554 0.965183 -0.102902 3.17207e-11 3.99725e-10 1.1574e-10 -10.2786 0.731801 -0.0259123 3.17268e-11 3.99725e-10 1.15732e-10 -2.22167 -0.733487 0.20892 -2.03217e-16 0.0 -3.88251e-19 -0.191934 -13.9284 -0.695569 -0.287099 36.9165 0.773889 -5.55547 -23.4231 -10.7093 2.03217e-16 0.0 3.88251e-19 2.54408 -10.6964 2.22368 0.137592 29.4456 -0.540867 6.19974 -16.2162 16.2289
278.388 83.3907 -40.9713 -25.5293 -85.945 25.6189 -0.475442 1.59532 1.04803 0.587026 5.16851 0.185976 -4.43143 6.8085 -3.81133 10.937 -30.2439 -4.35586 -0.0 0.0 0.0 -0.0 0.0 0.0 -2.21184e-14 -5.2805e-14 5.36439e-14 83.5356 21.1196 4.24032 -13.1447 -6.11432 24.0403 -3.68082e-05 0.170074 0.0239024 8.19448e-11 -4.3299e-10 2.66828e-12 1.4112e-10 -7.49898e-10 5.78598e-12 8.19523e-11 -4.32987e-10 2.65316e-12 7.73091 5.47488 0.417314 8.19432e-11 -4.3299e-10 2.6798e-12 2.90554 0.965183 0.102902 8.19505e-11 -4.3299e-10 2.67056e-12 10.2786 0.731801 0.0259123 8.19401e-11 -4.32987e-10 2.67403e-12 2.22167 -0.733487 -0.20892 -2.21748e-14 -5.27995e-14 5.33644e-14 -83.4145 25.5463 -8.97142 12.0845 -5.36758 -21.9225 0.0851351 -8.06511 1.14154 -8.9373e-11 3.37231e-10 5.22981e-10 -1.57223e-10 5.84338e-10 9.03551e-10 -8.93809e-11 3.37231e-10 5.22988e-10 -7.73091 5.47488 -0.417314 -8.93728e-11 3.37227e-10 5.22981e-10 -2.90554 0.965183 -0.102902 -8.93806e-11 3.37228e-10 5.2298e-10 -10.2786 0.731801 -0.0259123 -8.93728e-11 3.37228e-10 5.22972e-10 -2.22167 -0.733487 0.20892 -2.03217e-16 0.0 -3.88251e-19 -0.208405 -13.84 -0.710618 -0.280596 36.6439 0.763877 -5.46993 -23.2365 -10.595 2.03217e-16 0.0 3.88251e-19 2.50939 -10.6459 2.22066 0.133569 29.2378 -0.535066 6.1151 -16.0437 16.1224
278.377 83.3907 -40.968 -25.4341 -85.947 25.5246 -0.482138 1.50859 1.00985 0.571065 4.96908 0.180298 -4.2943 6.56576 -3.67648 10.6463 -29.0877 -4.16137 -0.0 0.0 0.0 -0.0 0.0 0.0 -2.52713e-14 1.08614e-13 8.23547e-14 80.5109 20.3777 4.04656 -12.7552 -5.93102 23.153 -2.69408e-05 0.14791 0.0207874 1.9921e-11 -5.13038e-10 -2.94967e-10 3.31641e-11 -8.88717e-10 -5.08694e-10 1.99239e-11 -5.13035e-10 -2.94977e-10 7.73091 5.47488 0.417314 1.99154e-11 -5.13035e-10 -2.94951e-10 2.90554 0.965183 0.102902 1.99254e-11 -5.13036e-10 -2.94965e-10 10.2786 0.731801 0.0259123 1.99163e-11 -5.13034e-10 -2.9496e-10 2.22167 -0.733487 -0.20892 -2.52698e-14 1.08618e-13 8.21528e-14 -80.5261 24.5102 -8.59146 11.6686 -5.1686 -21.0235 0.0738843 -7.64694 1.08135 -2.13054e-10 2.54024e-10 8.40279e-10 -3.71986e-10 4.39834e-10 1.45144e-09 -2.13059e-10 2.54023e-10 8.40286e-10 -7.73091 5.47488 -0.417314 -2.13052e-10 2.54018e-10 8.40277e-10 -2.90554 0.965183 -0.102902 -2.13061e-10 2.5402e-10 8.40279e-10 -10.2786 0.731801 -0.0259123 -2.13051e-10 2.54021e-10 8.40272e-10 -2.22167 -0.733487 0.20892 -2.03217e-16 0.0 -3.88251e-19 -0.207104 -13.4246 -0.705688 -0.248009 35.277 0.719288 -5.08806 -22.2914 -10.1078 2.03217e-16 0.0 3.88251e-19 2.37322 -10.3926 2.15351 0.116922 28.207 -0.508504 5.71283 -15.3616 15.5
